<svg width="40" height="40" fill="none" xmlns="http://www.w3.org/2000/svg"><circle cx="20" cy="20" r="20" fill="#fff"/><path d="M24.692 19.134c.024 2.602 2.283 3.468 2.308 3.48-.02.06-.36 1.233-1.19 2.445-.716 1.047-1.46 2.09-2.632 2.112-1.151.022-1.521-.682-2.838-.682-1.315 0-1.727.66-2.817.704-1.13.042-1.992-1.133-2.714-2.177-1.477-2.134-2.605-6.032-1.09-8.662.753-1.307 2.098-2.134 3.558-2.155 1.11-.021 2.159.747 2.837.747.679 0 1.953-.924 3.292-.788.56.023 2.134.226 3.145 1.705-.082.05-1.878 1.096-1.859 3.271zm-2.163-6.389c.6-.726 1.004-1.738.894-2.745-.865.035-1.912.577-2.533 1.303-.556.643-1.043 1.673-.912 2.66.965.074 1.95-.49 2.55-1.218" fill="#000"/></svg>