<svg width="40" height="40" fill="none" xmlns="http://www.w3.org/2000/svg"><circle cx="20" cy="20" r="20" fill="#FFE812"/><path d="M20 11.5c-5.385 0-9.75 3.443-9.75 7.69 0 2.745 1.825 5.155 4.57 6.515-.15.515-.96 3.315-.992 3.535 0 0-.02.165.088.228.107.063.232.014.232.014.307-.043 3.558-2.327 4.12-2.723.562.08 1.141.12 1.732.12 5.385 0 9.75-3.442 9.75-7.69 0-4.246-4.365-7.689-9.75-7.689z" fill="#3C1E1E"/><path d="M14.841 21.871a.55.55 0 01-.562-.537v-3.342H13.4a.552.552 0 010-1.101h2.88a.552.552 0 010 1.101h-.877v3.342a.55.55 0 01-.563.537zm4.932-.007c-.234 0-.414-.096-.468-.249l-.278-.729h-1.715l-.28.73c-.053.153-.232.248-.467.248a.86.86 0 01-.358-.078c-.155-.071-.304-.268-.133-.799l1.346-3.541c.094-.27.382-.547.749-.555.367.008.655.286.75.556l1.345 3.54c.171.531.022.728-.133.8a.861.861 0 01-.358.077zm-1.042-1.974l-.562-1.596-.562 1.596h1.124zm2.438 1.9a.528.528 0 01-.539-.517v-3.82a.57.57 0 01.574-.562.57.57 0 01.575.562v3.305h1.195c.297 0 .539.231.539.515a.528.528 0 01-.54.516H21.17zm3.125.074a.563.563 0 01-.562-.563v-3.848a.563.563 0 011.125 0v1.21l1.57-1.57a.437.437 0 01.311-.125c.14 0 .282.06.387.166a.554.554 0 01.166.356.438.438 0 01-.125.343l-1.281 1.282 1.384 1.834a.557.557 0 01.036.624.561.561 0 01-.736.219.558.558 0 01-.198-.166l-1.319-1.748-.195.196V21.3a.563.563 0 01-.563.563z" fill="#FFE812"/></svg>